<svg width="182" height="145" viewBox="0 0 182 145" fill="none" xmlns="http://www.w3.org/2000/svg">
<path d="M179.261 32.8562C177.037 25.6806 173.241 19.1666 168.182 13.8484C163.124 8.5302 156.948 4.55959 150.161 2.26256C143.375 -0.0344682 136.172 -0.592497 129.142 0.634301C122.113 1.8611 115.459 4.83795 109.725 9.3201L93.4019 43.9323L123.436 40.8174L90.7902 82.6979L116.254 76.1215L100.257 142.577L95.3606 97.5814L59.7765 105.542L87.1991 59.5077L63.3676 56.0468L79.6906 16.5889C73.8054 10.174 66.3796 5.58436 58.2148 3.31514C50.0501 1.04593 41.4562 1.18282 33.3597 3.71178C25.2631 6.24073 17.9712 11.0659 12.2709 17.6658C6.57068 24.2657 2.67839 32.3902 1.01349 41.1633C-10.7391 99.3119 83.2816 135.655 98.9517 145C127.354 129.424 196.563 83.39 179.261 32.8562Z" fill="#D2161E"/>
</svg>
