<svg width="169" height="143" viewBox="0 0 169 143" fill="none" xmlns="http://www.w3.org/2000/svg">
<path d="M166.404 30.0471C163.186 21.4433 157.663 14.0263 150.515 8.71205C143.367 3.39778 134.908 0.419108 126.181 0.142957C117.454 -0.133194 108.842 2.30557 101.408 7.1584C93.9733 12.0112 88.0425 19.0653 84.3469 27.4504C80.7103 19.0413 74.8163 11.9547 67.402 7.07619C59.9877 2.19769 51.3817 -0.255928 42.6592 0.0211218C33.9367 0.298171 25.4848 3.29398 18.3593 8.6343C11.2338 13.9746 5.75112 21.4223 2.59601 30.0471C-16.6935 85.2253 77.6107 134.886 84.6529 143C91.3889 136.508 185.693 84.5762 166.404 30.0471Z" fill="#D2161E"/>
</svg>
